G04 #@! TF.GenerationSoftware,KiCad,Pcbnew,(7.0.0)*
G04 #@! TF.CreationDate,2023-02-28T23:09:26-06:00*
G04 #@! TF.ProjectId,MCD,4d43442e-6b69-4636-9164-5f7063625858,rev?*
G04 #@! TF.SameCoordinates,Original*
G04 #@! TF.FileFunction,Soldermask,Bot*
G04 #@! TF.FilePolarity,Negative*
%FSLAX46Y46*%
G04 Gerber Fmt 4.6, Leading zero omitted, Abs format (unit mm)*
G04 Created by KiCad (PCBNEW (7.0.0)) date 2023-02-28 23:09:26*
%MOMM*%
%LPD*%
G01*
G04 APERTURE LIST*
G04 Aperture macros list*
%AMRoundRect*
0 Rectangle with rounded corners*
0 $1 Rounding radius*
0 $2 $3 $4 $5 $6 $7 $8 $9 X,Y pos of 4 corners*
0 Add a 4 corners polygon primitive as box body*
4,1,4,$2,$3,$4,$5,$6,$7,$8,$9,$2,$3,0*
0 Add four circle primitives for the rounded corners*
1,1,$1+$1,$2,$3*
1,1,$1+$1,$4,$5*
1,1,$1+$1,$6,$7*
1,1,$1+$1,$8,$9*
0 Add four rect primitives between the rounded corners*
20,1,$1+$1,$2,$3,$4,$5,0*
20,1,$1+$1,$4,$5,$6,$7,0*
20,1,$1+$1,$6,$7,$8,$9,0*
20,1,$1+$1,$8,$9,$2,$3,0*%
G04 Aperture macros list end*
%ADD10R,1.422400X1.422400*%
%ADD11C,1.422400*%
%ADD12C,3.800000*%
%ADD13R,1.700000X1.700000*%
%ADD14O,1.700000X1.700000*%
%ADD15O,1.600000X2.000000*%
%ADD16RoundRect,0.250000X0.350000X0.450000X-0.350000X0.450000X-0.350000X-0.450000X0.350000X-0.450000X0*%
%ADD17R,1.980000X3.000000*%
%ADD18RoundRect,0.250000X-0.350000X-0.450000X0.350000X-0.450000X0.350000X0.450000X-0.350000X0.450000X0*%
%ADD19RoundRect,0.250000X0.450000X-0.350000X0.450000X0.350000X-0.450000X0.350000X-0.450000X-0.350000X0*%
%ADD20RoundRect,0.250000X0.337500X0.475000X-0.337500X0.475000X-0.337500X-0.475000X0.337500X-0.475000X0*%
%ADD21RoundRect,0.250000X0.475000X-0.337500X0.475000X0.337500X-0.475000X0.337500X-0.475000X-0.337500X0*%
%ADD22R,0.600000X0.420000*%
%ADD23RoundRect,0.250000X-0.475000X0.337500X-0.475000X-0.337500X0.475000X-0.337500X0.475000X0.337500X0*%
%ADD24RoundRect,0.250000X-0.337500X-0.475000X0.337500X-0.475000X0.337500X0.475000X-0.337500X0.475000X0*%
%ADD25RoundRect,0.250000X-0.450000X0.350000X-0.450000X-0.350000X0.450000X-0.350000X0.450000X0.350000X0*%
G04 APERTURE END LIST*
D10*
X185119999Y-128259999D03*
D11*
X187660000Y-130800000D03*
X187660000Y-128260000D03*
X190200000Y-130800000D03*
X192740000Y-128260000D03*
X190200000Y-128260000D03*
X192740000Y-125720000D03*
X190200000Y-125720000D03*
X192740000Y-123180000D03*
X190200000Y-123180000D03*
X192740000Y-120640000D03*
X190200000Y-120640000D03*
X192740000Y-118100000D03*
X190200000Y-115560000D03*
X190200000Y-118100000D03*
X187660000Y-115560000D03*
X187660000Y-118100000D03*
X185120000Y-115560000D03*
X185120000Y-118100000D03*
X182580000Y-115560000D03*
X180040000Y-118100000D03*
X182580000Y-118100000D03*
X180040000Y-120640000D03*
X182580000Y-120640000D03*
X180040000Y-123180000D03*
X182580000Y-123180000D03*
X180040000Y-125720000D03*
X182580000Y-125720000D03*
X180040000Y-128260000D03*
X182580000Y-130800000D03*
X182580000Y-128260000D03*
X185120000Y-130800000D03*
D12*
X81900000Y-84100000D03*
X219900000Y-84100000D03*
D11*
X157000000Y-98680000D03*
X157000000Y-96140000D03*
X159540000Y-98680000D03*
X159540000Y-96140000D03*
X162080000Y-98680000D03*
X162080000Y-96140000D03*
X164620000Y-98680000D03*
X164620000Y-96140000D03*
X167160000Y-98680000D03*
X164620000Y-101220000D03*
X167160000Y-101220000D03*
X164620000Y-103760000D03*
X167160000Y-103760000D03*
X164620000Y-106300000D03*
X167160000Y-106300000D03*
X164620000Y-108840000D03*
X167160000Y-108840000D03*
X164620000Y-111380000D03*
X167160000Y-111380000D03*
X164620000Y-113920000D03*
X167160000Y-113920000D03*
X164620000Y-116460000D03*
X167160000Y-116460000D03*
X164620000Y-119000000D03*
X167160000Y-119000000D03*
X164620000Y-121540000D03*
X162080000Y-119000000D03*
X162080000Y-121540000D03*
X159540000Y-119000000D03*
X159540000Y-121540000D03*
X157000000Y-119000000D03*
X157000000Y-121540000D03*
X154460000Y-119000000D03*
X154460000Y-121540000D03*
X151920000Y-119000000D03*
X151920000Y-121540000D03*
X149380000Y-119000000D03*
X149380000Y-121540000D03*
X146840000Y-119000000D03*
X146840000Y-121540000D03*
X144300000Y-119000000D03*
X144300000Y-121540000D03*
X141760000Y-119000000D03*
X144300000Y-116460000D03*
X141760000Y-116460000D03*
X144300000Y-113920000D03*
X141760000Y-113920000D03*
X144300000Y-111380000D03*
X141760000Y-111380000D03*
X144300000Y-108840000D03*
X141760000Y-108840000D03*
X144300000Y-106300000D03*
X141760000Y-106300000D03*
X144300000Y-103760000D03*
X141760000Y-103760000D03*
X144300000Y-101220000D03*
X141760000Y-101220000D03*
X144300000Y-98680000D03*
X141760000Y-98680000D03*
X144300000Y-96140000D03*
X146840000Y-98680000D03*
X146840000Y-96140000D03*
X149380000Y-98680000D03*
X149380000Y-96140000D03*
X151920000Y-98680000D03*
X151920000Y-96140000D03*
X154460000Y-98680000D03*
D10*
X154459999Y-96139999D03*
D13*
X219799999Y-124199999D03*
D14*
X219799999Y-126739999D03*
D13*
X81249999Y-100829999D03*
D14*
X81249999Y-98289999D03*
X81249999Y-95749999D03*
X81249999Y-93209999D03*
X81249999Y-90669999D03*
X81249999Y-88129999D03*
D13*
X81749999Y-121169999D03*
D14*
X81749999Y-123709999D03*
X81749999Y-126249999D03*
X81749999Y-128789999D03*
D12*
X219900000Y-133400000D03*
D10*
X102869999Y-95169999D03*
D11*
X105410000Y-92630000D03*
X102870000Y-92630000D03*
X105410000Y-90090000D03*
X102870000Y-90090000D03*
X105410000Y-87550000D03*
X102870000Y-85010000D03*
X102870000Y-87550000D03*
X100330000Y-85010000D03*
X100330000Y-87550000D03*
X97790000Y-85010000D03*
X97790000Y-87550000D03*
X95250000Y-85010000D03*
X95250000Y-87550000D03*
X92710000Y-85010000D03*
X92710000Y-87550000D03*
X90170000Y-85010000D03*
X87630000Y-87550000D03*
X90170000Y-87550000D03*
X87630000Y-90090000D03*
X90170000Y-90090000D03*
X87630000Y-92630000D03*
X90170000Y-92630000D03*
X87630000Y-95170000D03*
X90170000Y-95170000D03*
X87630000Y-97710000D03*
X90170000Y-97710000D03*
X87630000Y-100250000D03*
X90170000Y-102790000D03*
X90170000Y-100250000D03*
X92710000Y-102790000D03*
X92710000Y-100250000D03*
X95250000Y-102790000D03*
X95250000Y-100250000D03*
X97790000Y-102790000D03*
X97790000Y-100250000D03*
X100330000Y-102790000D03*
X100330000Y-100250000D03*
X102870000Y-102790000D03*
X105410000Y-100250000D03*
X102870000Y-100250000D03*
X105410000Y-97710000D03*
X102870000Y-97710000D03*
X105410000Y-95170000D03*
D10*
X120669999Y-115209999D03*
D11*
X123210000Y-117750000D03*
X123210000Y-115210000D03*
X125750000Y-117750000D03*
X128290000Y-115210000D03*
X125750000Y-115210000D03*
X128290000Y-112670000D03*
X125750000Y-112670000D03*
X128290000Y-110130000D03*
X125750000Y-110130000D03*
X128290000Y-107590000D03*
X125750000Y-107590000D03*
X128290000Y-105050000D03*
X125750000Y-102510000D03*
X125750000Y-105050000D03*
X123210000Y-102510000D03*
X123210000Y-105050000D03*
X120670000Y-102510000D03*
X120670000Y-105050000D03*
X118130000Y-102510000D03*
X115590000Y-105050000D03*
X118130000Y-105050000D03*
X115590000Y-107590000D03*
X118130000Y-107590000D03*
X115590000Y-110130000D03*
X118130000Y-110130000D03*
X115590000Y-112670000D03*
X118130000Y-112670000D03*
X115590000Y-115210000D03*
X118130000Y-117750000D03*
X118130000Y-115210000D03*
X120670000Y-117750000D03*
D15*
X190939999Y-83999999D03*
X188399999Y-83999999D03*
X185859999Y-83999999D03*
X183319999Y-83999999D03*
D12*
X81900000Y-133400000D03*
D10*
X97079999Y-129579999D03*
D11*
X99620000Y-132120000D03*
X99620000Y-129580000D03*
X102160000Y-132120000D03*
X102160000Y-129580000D03*
X104700000Y-132120000D03*
X107240000Y-129580000D03*
X104700000Y-129580000D03*
X107240000Y-127040000D03*
X104700000Y-127040000D03*
X107240000Y-124500000D03*
X104700000Y-124500000D03*
X107240000Y-121960000D03*
X104700000Y-121960000D03*
X107240000Y-119420000D03*
X104700000Y-119420000D03*
X107240000Y-116880000D03*
X104700000Y-114340000D03*
X104700000Y-116880000D03*
X102160000Y-114340000D03*
X102160000Y-116880000D03*
X99620000Y-114340000D03*
X99620000Y-116880000D03*
X97080000Y-114340000D03*
X97080000Y-116880000D03*
X94540000Y-114340000D03*
X94540000Y-116880000D03*
X92000000Y-114340000D03*
X89460000Y-116880000D03*
X92000000Y-116880000D03*
X89460000Y-119420000D03*
X92000000Y-119420000D03*
X89460000Y-121960000D03*
X92000000Y-121960000D03*
X89460000Y-124500000D03*
X92000000Y-124500000D03*
X89460000Y-127040000D03*
X92000000Y-127040000D03*
X89460000Y-129580000D03*
X92000000Y-132120000D03*
X92000000Y-129580000D03*
X94540000Y-132120000D03*
X94540000Y-129580000D03*
X97080000Y-132120000D03*
D16*
X91500000Y-109700000D03*
X89500000Y-109700000D03*
D17*
X158099999Y-108324999D03*
X152839999Y-108324999D03*
X152839999Y-103124999D03*
X158099999Y-103124999D03*
D18*
X114300000Y-88400000D03*
X116300000Y-88400000D03*
D19*
X132400000Y-88800000D03*
X132400000Y-86800000D03*
D20*
X120750000Y-121250000D03*
X118675000Y-121250000D03*
D18*
X82100000Y-107600000D03*
X84100000Y-107600000D03*
D21*
X162000000Y-105237500D03*
X162000000Y-103162500D03*
X162000000Y-110100000D03*
X162000000Y-108025000D03*
D22*
X112299999Y-121899999D03*
X112299999Y-122549999D03*
X112299999Y-123199999D03*
X109999999Y-123199999D03*
X109999999Y-122549999D03*
X109999999Y-121899999D03*
D18*
X82100000Y-109700000D03*
X84100000Y-109700000D03*
D16*
X180750000Y-95000000D03*
X178750000Y-95000000D03*
D23*
X183250000Y-95962500D03*
X183250000Y-98037500D03*
D20*
X127750000Y-130100000D03*
X125675000Y-130100000D03*
X97100000Y-134600000D03*
X95025000Y-134600000D03*
D22*
X112299999Y-124799999D03*
X112299999Y-125449999D03*
X112299999Y-126099999D03*
X109999999Y-126099999D03*
X109999999Y-125449999D03*
X109999999Y-124799999D03*
D21*
X102500000Y-124600000D03*
X102500000Y-122525000D03*
D24*
X142525000Y-86600000D03*
X144600000Y-86600000D03*
D16*
X148500000Y-110250000D03*
X146500000Y-110250000D03*
D18*
X218100000Y-115800000D03*
X220100000Y-115800000D03*
D21*
X185250000Y-126287500D03*
X185250000Y-124212500D03*
D18*
X146500000Y-112750000D03*
X148500000Y-112750000D03*
D24*
X164725000Y-87900000D03*
X166800000Y-87900000D03*
D17*
X99899999Y-125899999D03*
X94639999Y-125899999D03*
X94639999Y-120699999D03*
X99899999Y-120699999D03*
D19*
X185250000Y-122250000D03*
X185250000Y-120250000D03*
X113500000Y-111000000D03*
X113500000Y-109000000D03*
X135900000Y-88800000D03*
X135900000Y-86800000D03*
D24*
X114300000Y-91200000D03*
X116375000Y-91200000D03*
D21*
X100250000Y-98000000D03*
X100250000Y-95925000D03*
D23*
X147750000Y-104212500D03*
X147750000Y-106287500D03*
D18*
X218100000Y-118400000D03*
X220100000Y-118400000D03*
D16*
X91450000Y-107600000D03*
X89450000Y-107600000D03*
D20*
X144600000Y-90600000D03*
X142525000Y-90600000D03*
D25*
X147250000Y-115000000D03*
X147250000Y-117000000D03*
D23*
X195000000Y-103762500D03*
X195000000Y-105837500D03*
X92790000Y-90250000D03*
X92790000Y-92325000D03*
M02*
