M48
; DRILL file {KiCad (7.0.0)} date Tue Feb 28 23:10:03 2023
; FORMAT={-:-/ absolute / metric / decimal}
; #@! TF.CreationDate,2023-02-28T23:10:03-06:00
; #@! TF.GenerationSoftware,Kicad,Pcbnew,(7.0.0)
; #@! TF.FileFunction,Plated,1,2,PTH
FMAT,2
METRIC
; #@! TA.AperFunction,Plated,PTH,ViaDrill
T1C0.300
; #@! TA.AperFunction,Plated,PTH,ViaDrill
T2C0.400
; #@! TA.AperFunction,Plated,PTH,ViaDrill
T3C0.500
; #@! TA.AperFunction,Plated,PTH,ComponentDrill
T4C0.800
; #@! TA.AperFunction,Plated,PTH,ComponentDrill
T5C1.000
; #@! TA.AperFunction,Plated,PTH,ComponentDrill
T6C2.200
%
G90
G05
T1
X83.0Y-108.6
X84.9Y-108.7
X85.3Y-91.0
X88.675Y-108.67
X90.472Y-108.686
X104.653Y-85.637
X106.4Y-101.863
X108.55Y-84.65
X110.958Y-97.3
X110.996Y-103.087
X111.646Y-108.177
X111.795Y-103.092
X111.8Y-97.3
X112.238Y-114.688
X112.238Y-115.5
X112.238Y-116.3
X112.599Y-97.3
X112.6Y-103.1
X113.937Y-115.5
X113.937Y-116.3
X113.938Y-114.688
X114.0Y-118.2
X114.0Y-121.9
X114.0Y-124.8
X114.0Y-134.6
X114.052Y-105.05
X115.325Y-121.575
X115.983Y-120.083
X116.231Y-121.519
X116.233Y-101.633
X121.118Y-86.4
X122.375Y-86.4
X122.562Y-124.9
X123.658Y-86.4
X123.659Y-96.759
X123.832Y-124.9
X124.212Y-104.063
X124.928Y-86.4
X125.102Y-124.9
X125.5Y-97.313
X125.9Y-131.3
X126.198Y-86.4
X126.198Y-96.75
X126.372Y-124.9
X126.6Y-89.3
X127.468Y-86.468
X127.601Y-89.604
X127.82Y-117.28
X128.33Y-97.295
X128.4Y-89.589
X128.9Y-131.2
X129.2Y-89.589
X129.667Y-91.533
X130.012Y-89.581
X130.188Y-130.744
X131.452Y-130.748
X132.0Y-120.325
X132.063Y-92.187
X132.3Y-92.97
X132.724Y-130.777
X132.868Y-93.533
X132.9Y-120.3
X133.597Y-93.86
X133.706Y-120.294
X133.903Y-116.428
X134.2Y-86.5
X134.2Y-87.6
X134.327Y-94.187
X134.515Y-120.29
X134.711Y-116.423
X135.023Y-94.581
X135.326Y-120.289
X135.525Y-116.425
X135.738Y-94.937
X136.139Y-120.289
X136.17Y-95.61
X136.331Y-116.418
X136.951Y-120.288
X137.187Y-116.429
X137.6Y-85.7
X139.566Y-100.752
X139.596Y-99.027
X139.598Y-98.227
X140.0Y-85.7
X140.55Y-116.35
X140.57Y-117.578
X149.243Y-124.931
X150.243Y-125.231
X151.118Y-125.606
X151.7Y-93.6
X151.993Y-125.981
X152.5Y-93.599
X152.993Y-126.331
X153.4Y-93.599
X153.945Y-126.681
X154.2Y-91.11
X154.2Y-93.599
X154.692Y-127.031
X155.015Y-91.1
X155.618Y-127.356
X155.814Y-91.1
X156.242Y-93.253
X156.493Y-127.731
X156.614Y-91.1
X156.992Y-92.753
X157.368Y-128.082
X157.75Y-92.25
X158.243Y-128.431
X158.5Y-91.75
X159.1Y-128.781
X159.9Y-129.131
X160.8Y-129.481
X161.6Y-129.856
X165.8Y-97.5
X166.325Y-119.9
X167.8Y-94.3
X169.5Y-88.9
X169.815Y-87.215
X170.0Y-124.0
X170.2Y-96.4
X170.4Y-111.2
X170.806Y-124.006
X171.615Y-124.01
X172.427Y-124.011
X173.239Y-124.011
X174.051Y-124.012
X174.7Y-96.3
X174.7Y-98.9
X174.75Y-93.75
X174.75Y-95.03
X174.75Y-97.6
X174.75Y-100.1
X174.75Y-101.4
X174.75Y-102.75
X174.75Y-103.9
X174.75Y-105.25
X174.867Y-124.008
X175.677Y-124.01
X176.489Y-124.011
X176.85Y-93.325
X177.302Y-124.01
X178.105Y-124.003
X178.4Y-99.5
X178.5Y-100.425
X178.625Y-101.425
X178.745Y-86.525
X178.754Y-89.308
X178.86Y-102.416
X179.125Y-103.494
X180.416Y-83.5
X181.375Y-105.31
X181.4Y-103.92
X181.4Y-106.5
X181.425Y-107.73
X182.6Y-127.0
X184.936Y-98.097
X185.365Y-105.885
X186.0Y-107.155
X186.631Y-108.425
X187.157Y-93.6
X187.205Y-110.3
X187.292Y-97.377
X187.4Y-96.09
X187.731Y-94.81
X187.78Y-109.0
X188.5Y-99.9
X188.525Y-108.12
X188.559Y-98.671
X189.098Y-101.17
X189.125Y-107.095
X189.2Y-102.439
X189.525Y-105.713
X191.656Y-91.825
X191.771Y-130.691
X192.987Y-130.7
X194.149Y-130.7
X195.5Y-118.5
X195.5Y-120.9
X197.1Y-107.7
X200.7Y-123.58
X200.8Y-126.1
X201.231Y-131.2
X201.231Y-132.124
X202.7Y-131.069
X203.1Y-110.8
X203.6Y-131.1
X205.0Y-108.1
X206.3Y-111.8
X206.3Y-119.6
X206.3Y-120.6
X207.228Y-111.8
X207.228Y-119.6
X207.9Y-123.385
X209.814Y-126.296
X209.831Y-131.2
X210.1Y-111.2
X210.6Y-115.96
X212.498Y-128.66
X217.9Y-117.0
X219.4Y-117.1
T2
X93.2Y-128.4
X103.4Y-128.2
X110.4Y-87.6
X112.853Y-88.347
X119.6Y-87.6
X122.6Y-121.24
X128.4Y-95.256
X128.8Y-121.24
X131.0Y-86.7
X142.0Y-88.6
X144.812Y-87.9
X149.8Y-88.4
X160.2Y-86.9
X166.293Y-89.558
X169.0Y-123.3
X180.75Y-86.425
X180.75Y-89.208
X180.75Y-93.474
X181.9Y-89.208
X184.3Y-113.1
X193.2Y-105.8
X193.3Y-103.7
X198.7Y-106.274
X199.2Y-110.0
X200.7Y-117.9
X202.9Y-119.7
X203.1Y-106.575
X203.1Y-109.0
X203.9Y-118.3
X204.9Y-119.7
X207.439Y-109.424
X208.8Y-111.87
X209.138Y-113.162
X212.7Y-122.316
X220.652Y-120.149
T3
X93.3Y-130.8
X100.999Y-128.701
X144.6Y-89.0
X169.15Y-119.15
X179.101Y-121.801
X179.504Y-131.367
X195.499Y-128.6
X197.6Y-134.2
X206.7Y-134.026
X213.42Y-133.12
X220.9Y-112.3
T4
X87.63Y-87.55
X87.63Y-90.09
X87.63Y-92.63
X87.63Y-95.17
X87.63Y-97.71
X87.63Y-100.25
X89.46Y-116.88
X89.46Y-119.42
X89.46Y-121.96
X89.46Y-124.5
X89.46Y-127.04
X89.46Y-129.58
X90.17Y-85.01
X90.17Y-87.55
X90.17Y-90.09
X90.17Y-92.63
X90.17Y-95.17
X90.17Y-97.71
X90.17Y-100.25
X90.17Y-102.79
X92.0Y-114.34
X92.0Y-116.88
X92.0Y-119.42
X92.0Y-121.96
X92.0Y-124.5
X92.0Y-127.04
X92.0Y-129.58
X92.0Y-132.12
X92.71Y-85.01
X92.71Y-87.55
X92.71Y-100.25
X92.71Y-102.79
X94.54Y-114.34
X94.54Y-116.88
X94.54Y-129.58
X94.54Y-132.12
X95.25Y-85.01
X95.25Y-87.55
X95.25Y-100.25
X95.25Y-102.79
X97.08Y-114.34
X97.08Y-116.88
X97.08Y-129.58
X97.08Y-132.12
X97.79Y-85.01
X97.79Y-87.55
X97.79Y-100.25
X97.79Y-102.79
X99.62Y-114.34
X99.62Y-116.88
X99.62Y-129.58
X99.62Y-132.12
X100.33Y-85.01
X100.33Y-87.55
X100.33Y-100.25
X100.33Y-102.79
X102.16Y-114.34
X102.16Y-116.88
X102.16Y-129.58
X102.16Y-132.12
X102.87Y-85.01
X102.87Y-87.55
X102.87Y-90.09
X102.87Y-92.63
X102.87Y-95.17
X102.87Y-97.71
X102.87Y-100.25
X102.87Y-102.79
X104.7Y-114.34
X104.7Y-116.88
X104.7Y-119.42
X104.7Y-121.96
X104.7Y-124.5
X104.7Y-127.04
X104.7Y-129.58
X104.7Y-132.12
X105.41Y-87.55
X105.41Y-90.09
X105.41Y-92.63
X105.41Y-95.17
X105.41Y-97.71
X105.41Y-100.25
X107.24Y-116.88
X107.24Y-119.42
X107.24Y-121.96
X107.24Y-124.5
X107.24Y-127.04
X107.24Y-129.58
X115.59Y-105.05
X115.59Y-107.59
X115.59Y-110.13
X115.59Y-112.67
X115.59Y-115.21
X118.13Y-102.51
X118.13Y-105.05
X118.13Y-107.59
X118.13Y-110.13
X118.13Y-112.67
X118.13Y-115.21
X118.13Y-117.75
X120.67Y-102.51
X120.67Y-105.05
X120.67Y-115.21
X120.67Y-117.75
X123.21Y-102.51
X123.21Y-105.05
X123.21Y-115.21
X123.21Y-117.75
X125.75Y-102.51
X125.75Y-105.05
X125.75Y-107.59
X125.75Y-110.13
X125.75Y-112.67
X125.75Y-115.21
X125.75Y-117.75
X128.29Y-105.05
X128.29Y-107.59
X128.29Y-110.13
X128.29Y-112.67
X128.29Y-115.21
X141.76Y-98.68
X141.76Y-101.22
X141.76Y-103.76
X141.76Y-106.3
X141.76Y-108.84
X141.76Y-111.38
X141.76Y-113.92
X141.76Y-116.46
X141.76Y-119.0
X144.3Y-96.14
X144.3Y-98.68
X144.3Y-101.22
X144.3Y-103.76
X144.3Y-106.3
X144.3Y-108.84
X144.3Y-111.38
X144.3Y-113.92
X144.3Y-116.46
X144.3Y-119.0
X144.3Y-121.54
X146.84Y-96.14
X146.84Y-98.68
X146.84Y-119.0
X146.84Y-121.54
X149.38Y-96.14
X149.38Y-98.68
X149.38Y-119.0
X149.38Y-121.54
X151.92Y-96.14
X151.92Y-98.68
X151.92Y-119.0
X151.92Y-121.54
X154.46Y-96.14
X154.46Y-98.68
X154.46Y-119.0
X154.46Y-121.54
X157.0Y-96.14
X157.0Y-98.68
X157.0Y-119.0
X157.0Y-121.54
X159.54Y-96.14
X159.54Y-98.68
X159.54Y-119.0
X159.54Y-121.54
X162.08Y-96.14
X162.08Y-98.68
X162.08Y-119.0
X162.08Y-121.54
X164.62Y-96.14
X164.62Y-98.68
X164.62Y-101.22
X164.62Y-103.76
X164.62Y-106.3
X164.62Y-108.84
X164.62Y-111.38
X164.62Y-113.92
X164.62Y-116.46
X164.62Y-119.0
X164.62Y-121.54
X167.16Y-98.68
X167.16Y-101.22
X167.16Y-103.76
X167.16Y-106.3
X167.16Y-108.84
X167.16Y-111.38
X167.16Y-113.92
X167.16Y-116.46
X167.16Y-119.0
X180.04Y-118.1
X180.04Y-120.64
X180.04Y-123.18
X180.04Y-125.72
X180.04Y-128.26
X182.58Y-115.56
X182.58Y-118.1
X182.58Y-120.64
X182.58Y-123.18
X182.58Y-125.72
X182.58Y-128.26
X182.58Y-130.8
X185.12Y-115.56
X185.12Y-118.1
X185.12Y-128.26
X185.12Y-130.8
X187.66Y-115.56
X187.66Y-118.1
X187.66Y-128.26
X187.66Y-130.8
X190.2Y-115.56
X190.2Y-118.1
X190.2Y-120.64
X190.2Y-123.18
X190.2Y-125.72
X190.2Y-128.26
X190.2Y-130.8
X192.74Y-118.1
X192.74Y-120.64
X192.74Y-123.18
X192.74Y-125.72
X192.74Y-128.26
T5
X81.25Y-88.13
X81.25Y-90.67
X81.25Y-93.21
X81.25Y-95.75
X81.25Y-98.29
X81.25Y-100.83
X81.75Y-121.17
X81.75Y-123.71
X81.75Y-126.25
X81.75Y-128.79
X183.32Y-84.0
X185.86Y-84.0
X188.4Y-84.0
X190.94Y-84.0
X219.8Y-124.2
X219.8Y-126.74
T6
X81.9Y-84.1
X81.9Y-133.4
X219.9Y-84.1
X219.9Y-133.4
T0
M30
