G04 #@! TF.GenerationSoftware,KiCad,Pcbnew,(7.0.0)*
G04 #@! TF.CreationDate,2023-02-28T23:09:26-06:00*
G04 #@! TF.ProjectId,MCD,4d43442e-6b69-4636-9164-5f7063625858,rev?*
G04 #@! TF.SameCoordinates,Original*
G04 #@! TF.FileFunction,Paste,Top*
G04 #@! TF.FilePolarity,Positive*
%FSLAX46Y46*%
G04 Gerber Fmt 4.6, Leading zero omitted, Abs format (unit mm)*
G04 Created by KiCad (PCBNEW (7.0.0)) date 2023-02-28 23:09:26*
%MOMM*%
%LPD*%
G01*
G04 APERTURE LIST*
G04 Aperture macros list*
%AMRoundRect*
0 Rectangle with rounded corners*
0 $1 Rounding radius*
0 $2 $3 $4 $5 $6 $7 $8 $9 X,Y pos of 4 corners*
0 Add a 4 corners polygon primitive as box body*
4,1,4,$2,$3,$4,$5,$6,$7,$8,$9,$2,$3,0*
0 Add four circle primitives for the rounded corners*
1,1,$1+$1,$2,$3*
1,1,$1+$1,$4,$5*
1,1,$1+$1,$6,$7*
1,1,$1+$1,$8,$9*
0 Add four rect primitives between the rounded corners*
20,1,$1+$1,$2,$3,$4,$5,0*
20,1,$1+$1,$4,$5,$6,$7,0*
20,1,$1+$1,$6,$7,$8,$9,0*
20,1,$1+$1,$8,$9,$2,$3,0*%
G04 Aperture macros list end*
%ADD10RoundRect,0.250000X-0.325000X-0.450000X0.325000X-0.450000X0.325000X0.450000X-0.325000X0.450000X0*%
%ADD11RoundRect,0.250000X0.325000X0.450000X-0.325000X0.450000X-0.325000X-0.450000X0.325000X-0.450000X0*%
%ADD12R,1.800000X1.500000*%
%ADD13RoundRect,0.150000X0.150000X-0.907500X0.150000X0.907500X-0.150000X0.907500X-0.150000X-0.907500X0*%
%ADD14RoundRect,0.156250X0.156250X-0.901250X0.156250X0.901250X-0.156250X0.901250X-0.156250X-0.901250X0*%
%ADD15R,1.600000X0.400000*%
%ADD16RoundRect,0.150000X0.150000X-0.975000X0.150000X0.975000X-0.150000X0.975000X-0.150000X-0.975000X0*%
%ADD17RoundRect,0.156250X0.156250X-0.968750X0.156250X0.968750X-0.156250X0.968750X-0.156250X-0.968750X0*%
%ADD18RoundRect,0.151250X0.151250X-0.973750X0.151250X0.973750X-0.151250X0.973750X-0.151250X-0.973750X0*%
%ADD19RoundRect,0.250000X0.450000X-0.325000X0.450000X0.325000X-0.450000X0.325000X-0.450000X-0.325000X0*%
%ADD20R,2.200000X1.000000*%
%ADD21R,1.800000X3.400000*%
%ADD22RoundRect,0.150000X-0.907500X-0.150000X0.907500X-0.150000X0.907500X0.150000X-0.907500X0.150000X0*%
%ADD23RoundRect,0.156250X-0.901250X-0.156250X0.901250X-0.156250X0.901250X0.156250X-0.901250X0.156250X0*%
%ADD24R,1.700000X1.000000*%
%ADD25R,1.700000X0.600000*%
%ADD26RoundRect,0.150000X-0.975000X-0.150000X0.975000X-0.150000X0.975000X0.150000X-0.975000X0.150000X0*%
%ADD27RoundRect,0.156250X-0.968750X-0.156250X0.968750X-0.156250X0.968750X0.156250X-0.968750X0.156250X0*%
%ADD28RoundRect,0.151250X-0.973750X-0.151250X0.973750X-0.151250X0.973750X0.151250X-0.973750X0.151250X0*%
%ADD29RoundRect,1.000000X0.855000X0.000000X-0.855000X0.000000X-0.855000X0.000000X0.855000X0.000000X0*%
%ADD30RoundRect,0.960000X0.895000X0.000000X-0.895000X0.000000X-0.895000X0.000000X0.895000X0.000000X0*%
%ADD31RoundRect,1.000000X0.937500X0.000000X-0.937500X0.000000X-0.937500X0.000000X0.937500X0.000000X0*%
%ADD32RoundRect,0.960000X0.977500X0.000000X-0.977500X0.000000X-0.977500X0.000000X0.977500X0.000000X0*%
%ADD33RoundRect,0.980000X0.957500X0.000000X-0.957500X0.000000X-0.957500X0.000000X0.957500X0.000000X0*%
G04 APERTURE END LIST*
D10*
X218600000Y-115800000D03*
X220650000Y-115800000D03*
D11*
X87700000Y-109700000D03*
X89750000Y-109700000D03*
D12*
X157999999Y-89899999D03*
X150999999Y-89899999D03*
X157999999Y-86899999D03*
X150999999Y-86899999D03*
D13*
X110958000Y-95256000D03*
X112228000Y-95256000D03*
X113498000Y-95256000D03*
X114768000Y-95256000D03*
X116038000Y-95256000D03*
X117308000Y-95256000D03*
X118578000Y-95256000D03*
X119848000Y-95256000D03*
X121118000Y-95256000D03*
D14*
X122400500Y-95256000D03*
D13*
X123658000Y-95256000D03*
X124928000Y-95256000D03*
X126198000Y-95256000D03*
X127468000Y-95256000D03*
X127468000Y-84141000D03*
X126198000Y-84141000D03*
X124928000Y-84141000D03*
X123658000Y-84141000D03*
D14*
X122400500Y-84141000D03*
D13*
X121118000Y-84141000D03*
X119848000Y-84141000D03*
X118578000Y-84141000D03*
X117308000Y-84141000D03*
X116038000Y-84141000D03*
X114768000Y-84141000D03*
X113498000Y-84141000D03*
X112228000Y-84141000D03*
X110958000Y-84141000D03*
D15*
X204999999Y-108749999D03*
X204999999Y-109399999D03*
X204999999Y-110049999D03*
X204999999Y-110699999D03*
X208799999Y-110699999D03*
X208799999Y-110049999D03*
X208799999Y-109399999D03*
X208799999Y-108749999D03*
D16*
X117482020Y-132900000D03*
X118752020Y-132900000D03*
X120022020Y-132900000D03*
X121292020Y-132900000D03*
X122562020Y-132900000D03*
X123832020Y-132900000D03*
X125102020Y-132900000D03*
X126372020Y-132900000D03*
X127642020Y-132900000D03*
D17*
X128924520Y-132900000D03*
D18*
X130184520Y-132900000D03*
D16*
X131452020Y-132900000D03*
X132722020Y-132900000D03*
X133992020Y-132900000D03*
X133992020Y-123150000D03*
X132722020Y-123150000D03*
X131452020Y-123150000D03*
D18*
X130184520Y-123150000D03*
D17*
X128924520Y-123150000D03*
D16*
X127642020Y-123150000D03*
X126372020Y-123150000D03*
X125102020Y-123150000D03*
X123832020Y-123150000D03*
X122562020Y-123150000D03*
X121292020Y-123150000D03*
X120022020Y-123150000D03*
X118752020Y-123150000D03*
X117482020Y-123150000D03*
D19*
X135900000Y-87250000D03*
X135900000Y-85200000D03*
X132400000Y-87250000D03*
X132400000Y-85200000D03*
D20*
X146862499Y-90849999D03*
X146862499Y-89349999D03*
X146862499Y-87849999D03*
X146862499Y-86349999D03*
D21*
X140562499Y-88599999D03*
D22*
X172385000Y-93760000D03*
X172385000Y-95030000D03*
X172385000Y-96300000D03*
X172385000Y-97570000D03*
X172385000Y-98840000D03*
X172385000Y-100110000D03*
X172385000Y-101380000D03*
X172385000Y-102650000D03*
X172385000Y-103920000D03*
D23*
X172385000Y-105202500D03*
D22*
X172385000Y-106460000D03*
X172385000Y-107730000D03*
X172385000Y-109000000D03*
X172385000Y-110270000D03*
X183500000Y-110270000D03*
X183500000Y-109000000D03*
X183500000Y-107730000D03*
X183500000Y-106460000D03*
D23*
X183500000Y-105202500D03*
D22*
X183500000Y-103920000D03*
X183500000Y-102650000D03*
X183500000Y-101380000D03*
X183500000Y-100110000D03*
X183500000Y-98840000D03*
X183500000Y-97570000D03*
X183500000Y-96300000D03*
X183500000Y-95030000D03*
X183500000Y-93760000D03*
D10*
X83800000Y-109700000D03*
X85850000Y-109700000D03*
D24*
X167724999Y-88914999D03*
D25*
X167724999Y-87214999D03*
X164724999Y-87214999D03*
X164724999Y-89114999D03*
D26*
X191300000Y-93550000D03*
X191300000Y-94820000D03*
X191300000Y-96090000D03*
X191300000Y-97360000D03*
X191300000Y-98630000D03*
X191300000Y-99900000D03*
X191300000Y-101170000D03*
X191300000Y-102440000D03*
X191300000Y-103710000D03*
D27*
X191300000Y-104992500D03*
D28*
X191300000Y-106252500D03*
D26*
X191300000Y-107520000D03*
X191300000Y-108790000D03*
X191300000Y-110060000D03*
X201050000Y-110060000D03*
X201050000Y-108790000D03*
X201050000Y-107520000D03*
D28*
X201050000Y-106252500D03*
D27*
X201050000Y-104992500D03*
D26*
X201050000Y-103710000D03*
X201050000Y-102440000D03*
X201050000Y-101170000D03*
X201050000Y-99900000D03*
X201050000Y-98630000D03*
X201050000Y-97360000D03*
X201050000Y-96090000D03*
X201050000Y-94820000D03*
X201050000Y-93550000D03*
D10*
X83800000Y-107600000D03*
X85850000Y-107600000D03*
X218600000Y-118400000D03*
X220650000Y-118400000D03*
D11*
X87700000Y-107600000D03*
X89750000Y-107600000D03*
D29*
X215400000Y-131200000D03*
X215400000Y-128660000D03*
X215400000Y-126120000D03*
X215400000Y-123580000D03*
X215400000Y-121040000D03*
D30*
X215400000Y-118540000D03*
D29*
X215400000Y-115960000D03*
D31*
X198192500Y-115960000D03*
D32*
X198192500Y-118540000D03*
D33*
X198192500Y-121060000D03*
D31*
X198192500Y-123580000D03*
X198192500Y-126120000D03*
X198192500Y-128660000D03*
X198192500Y-131200000D03*
M02*
