%TF.GenerationSoftware,KiCad,Pcbnew,(7.0.0)*%
%TF.CreationDate,2023-02-28T23:10:04-06:00*%
%TF.ProjectId,MCD,4d43442e-6b69-4636-9164-5f7063625858,rev?*%
%TF.SameCoordinates,Original*%
%TF.FileFunction,Drillmap*%
%TF.FilePolarity,Positive*%
%FSLAX45Y45*%
G04 Gerber Fmt 4.5, Leading zero omitted, Abs format (unit mm)*
G04 Created by KiCad (PCBNEW (7.0.0)) date 2023-02-28 23:10:04*
%MOMM*%
%LPD*%
G01*
G04 APERTURE LIST*
%ADD10C,0.100000*%
%ADD11C,0.200000*%
G04 APERTURE END LIST*
D10*
X8190000Y-13620000D02*
X21990000Y-13620000D01*
X7910000Y-8410000D02*
X7910000Y-13340000D01*
X21990000Y-8130000D02*
X8190000Y-8130000D01*
X22270000Y-8410000D02*
G75*
G03*
X21990000Y-8130000I-280000J0D01*
G01*
X21990000Y-13620000D02*
G75*
G03*
X22270000Y-13340000I0J280000D01*
G01*
X7910000Y-13340000D02*
G75*
G03*
X8190000Y-13620000I280000J0D01*
G01*
X8190000Y-8130000D02*
G75*
G03*
X7910000Y-8410000I0J-280000D01*
G01*
X22270000Y-13340000D02*
X22270000Y-8410000D01*
D11*
X8152619Y-13918476D02*
X8152619Y-13718476D01*
X8152619Y-13718476D02*
X8200238Y-13718476D01*
X8200238Y-13718476D02*
X8228809Y-13728000D01*
X8228809Y-13728000D02*
X8247857Y-13747048D01*
X8247857Y-13747048D02*
X8257381Y-13766095D01*
X8257381Y-13766095D02*
X8266905Y-13804190D01*
X8266905Y-13804190D02*
X8266905Y-13832762D01*
X8266905Y-13832762D02*
X8257381Y-13870857D01*
X8257381Y-13870857D02*
X8247857Y-13889905D01*
X8247857Y-13889905D02*
X8228809Y-13908952D01*
X8228809Y-13908952D02*
X8200238Y-13918476D01*
X8200238Y-13918476D02*
X8152619Y-13918476D01*
X8352619Y-13918476D02*
X8352619Y-13785143D01*
X8352619Y-13823238D02*
X8362143Y-13804190D01*
X8362143Y-13804190D02*
X8371667Y-13794667D01*
X8371667Y-13794667D02*
X8390714Y-13785143D01*
X8390714Y-13785143D02*
X8409762Y-13785143D01*
X8476429Y-13918476D02*
X8476429Y-13785143D01*
X8476429Y-13718476D02*
X8466905Y-13728000D01*
X8466905Y-13728000D02*
X8476429Y-13737524D01*
X8476429Y-13737524D02*
X8485952Y-13728000D01*
X8485952Y-13728000D02*
X8476429Y-13718476D01*
X8476429Y-13718476D02*
X8476429Y-13737524D01*
X8600238Y-13918476D02*
X8581190Y-13908952D01*
X8581190Y-13908952D02*
X8571667Y-13889905D01*
X8571667Y-13889905D02*
X8571667Y-13718476D01*
X8705000Y-13918476D02*
X8685952Y-13908952D01*
X8685952Y-13908952D02*
X8676429Y-13889905D01*
X8676429Y-13889905D02*
X8676429Y-13718476D01*
X8901190Y-13918476D02*
X8901190Y-13718476D01*
X8901190Y-13718476D02*
X8967857Y-13861333D01*
X8967857Y-13861333D02*
X9034524Y-13718476D01*
X9034524Y-13718476D02*
X9034524Y-13918476D01*
X9215476Y-13918476D02*
X9215476Y-13813714D01*
X9215476Y-13813714D02*
X9205952Y-13794667D01*
X9205952Y-13794667D02*
X9186905Y-13785143D01*
X9186905Y-13785143D02*
X9148809Y-13785143D01*
X9148809Y-13785143D02*
X9129762Y-13794667D01*
X9215476Y-13908952D02*
X9196429Y-13918476D01*
X9196429Y-13918476D02*
X9148809Y-13918476D01*
X9148809Y-13918476D02*
X9129762Y-13908952D01*
X9129762Y-13908952D02*
X9120238Y-13889905D01*
X9120238Y-13889905D02*
X9120238Y-13870857D01*
X9120238Y-13870857D02*
X9129762Y-13851809D01*
X9129762Y-13851809D02*
X9148809Y-13842286D01*
X9148809Y-13842286D02*
X9196429Y-13842286D01*
X9196429Y-13842286D02*
X9215476Y-13832762D01*
X9310714Y-13785143D02*
X9310714Y-13985143D01*
X9310714Y-13794667D02*
X9329762Y-13785143D01*
X9329762Y-13785143D02*
X9367857Y-13785143D01*
X9367857Y-13785143D02*
X9386905Y-13794667D01*
X9386905Y-13794667D02*
X9396429Y-13804190D01*
X9396429Y-13804190D02*
X9405952Y-13823238D01*
X9405952Y-13823238D02*
X9405952Y-13880381D01*
X9405952Y-13880381D02*
X9396429Y-13899428D01*
X9396429Y-13899428D02*
X9386905Y-13908952D01*
X9386905Y-13908952D02*
X9367857Y-13918476D01*
X9367857Y-13918476D02*
X9329762Y-13918476D01*
X9329762Y-13918476D02*
X9310714Y-13908952D01*
X9491667Y-13899428D02*
X9501190Y-13908952D01*
X9501190Y-13908952D02*
X9491667Y-13918476D01*
X9491667Y-13918476D02*
X9482143Y-13908952D01*
X9482143Y-13908952D02*
X9491667Y-13899428D01*
X9491667Y-13899428D02*
X9491667Y-13918476D01*
X9491667Y-13794667D02*
X9501190Y-13804190D01*
X9501190Y-13804190D02*
X9491667Y-13813714D01*
X9491667Y-13813714D02*
X9482143Y-13804190D01*
X9482143Y-13804190D02*
X9491667Y-13794667D01*
X9491667Y-13794667D02*
X9491667Y-13813714D01*
M02*
